<svg width="52" height="50" viewBox="0 0 52 50" fill="none" xmlns="http://www.w3.org/2000/svg">
<path d="M0 0H52V50H0V0Z" fill="#E796BF"/>
<path d="M6.1875 10.2109H12.2031V33.8242H26.4609V39H6.1875V10.2109ZM34.4297 30.7773C34.4297 32.1706 34.7878 33.2513 35.5039 34.0195C36.2331 34.7878 37.2357 35.1719 38.5117 35.1719C39.7878 35.1719 40.7839 34.7878 41.5 34.0195C42.2292 33.2513 42.5938 32.1706 42.5938 30.7773C42.5938 29.332 42.2227 28.2383 41.4805 27.4961C40.7513 26.7409 39.7617 26.3633 38.5117 26.3633C37.2617 26.3633 36.2656 26.7409 35.5234 27.4961C34.7943 28.2383 34.4297 29.332 34.4297 30.7773ZM28.6484 31.1484C28.6484 29.5599 29.0065 28.1211 29.7227 26.832C30.4518 25.543 31.513 24.5729 32.9062 23.9219C31.5391 23.0104 30.6471 22.0273 30.2305 20.9727C29.8268 19.9049 29.625 18.9089 29.625 17.9844C29.625 15.9271 30.3997 14.1758 31.9492 12.7305C33.4987 11.2721 35.6862 10.543 38.5117 10.543C41.3372 10.543 43.5247 11.2721 45.0742 12.7305C46.6237 14.1758 47.3984 15.9271 47.3984 17.9844C47.3984 18.9089 47.1901 19.9049 46.7734 20.9727C46.3698 22.0273 45.4844 22.9453 44.1172 23.7266C45.5104 24.5078 46.5586 25.543 47.2617 26.832C47.9648 28.1211 48.3164 29.5599 48.3164 31.1484C48.3164 33.5312 47.431 35.5625 45.6602 37.2422C43.9023 38.9089 41.4414 39.7422 38.2773 39.7422C35.1133 39.7422 32.7174 38.9089 31.0898 37.2422C29.4622 35.5625 28.6484 33.5312 28.6484 31.1484ZM34.9375 18.6094C34.9375 19.638 35.25 20.4779 35.875 21.1289C36.513 21.7799 37.3919 22.1055 38.5117 22.1055C39.6445 22.1055 40.5169 21.7799 41.1289 21.1289C41.7539 20.4779 42.0664 19.638 42.0664 18.6094C42.0664 17.4896 41.7539 16.6172 41.1289 15.9922C40.5169 15.3542 39.6445 15.0352 38.5117 15.0352C37.3919 15.0352 36.513 15.3542 35.875 15.9922C35.25 16.6172 34.9375 17.4896 34.9375 18.6094Z" fill="white"/>
</svg>
