<svg width="97" height="50" viewBox="0 0 97 50" fill="none" xmlns="http://www.w3.org/2000/svg">
<path d="M44 25C44 38.8071 34.1503 50 22 50C9.84974 50 0 38.8071 0 25C0 11.1929 9.84974 0 22 0C34.1503 0 44 11.1929 44 25Z" fill="#3DBFC3"/>
<path d="M53 25C53 11.1929 62.8497 0 75 0C87.1503 0 97 11.1929 97 25C97 38.8071 87.1503 50 75 50C62.8497 50 53 38.8071 53 25Z" fill="#3DBFC3"/>
<path d="M22 0H74V50H22V0Z" fill="#3DBFC3"/>
<path d="M31.4766 15.2109V22.9453H38.293C39.6471 22.9453 40.6628 22.7891 41.3398 22.4766C42.5378 21.9297 43.1367 20.849 43.1367 19.2344C43.1367 17.4896 42.5573 16.3177 41.3984 15.7188C40.7474 15.3802 39.7708 15.2109 38.4688 15.2109H31.4766ZM39.7188 10.2109C41.737 10.25 43.2865 10.4974 44.3672 10.9531C45.4609 11.4089 46.3854 12.0794 47.1406 12.9648C47.7656 13.694 48.2604 14.5013 48.625 15.3867C48.9896 16.2721 49.1719 17.2812 49.1719 18.4141C49.1719 19.7812 48.8268 21.1289 48.1367 22.457C47.4466 23.7721 46.3073 24.7031 44.7188 25.25C46.0469 25.7839 46.9844 26.5456 47.5312 27.5352C48.0911 28.5117 48.3711 30.0091 48.3711 32.0273V33.9609C48.3711 35.276 48.4232 36.168 48.5273 36.6367C48.6836 37.3789 49.0482 37.9258 49.6211 38.2773V39H43C42.8177 38.362 42.6875 37.8477 42.6094 37.457C42.4531 36.6497 42.3685 35.8229 42.3555 34.9766L42.3164 32.3008C42.2904 30.4648 41.9518 29.2409 41.3008 28.6289C40.6628 28.0169 39.4583 27.7109 37.6875 27.7109H31.4766V39H25.5977V10.2109H39.7188ZM57.9219 31.4219C58.1432 32.6328 58.5664 33.5703 59.1914 34.2344C59.8164 34.8854 60.7279 35.2109 61.9258 35.2109C63.306 35.2109 64.3542 34.7292 65.0703 33.7656C65.7995 32.7891 66.1641 31.5651 66.1641 30.0938C66.1641 28.6484 65.8255 27.431 65.1484 26.4414C64.4714 25.4388 63.4167 24.9375 61.9844 24.9375C61.3073 24.9375 60.7214 25.0221 60.2266 25.1914C59.3542 25.5039 58.6966 26.0833 58.2539 26.9297L53.2539 26.6953L55.2461 11.0508H70.8516V15.7773H59.2695L58.2539 21.9688C59.1133 21.4089 59.7839 21.0378 60.2656 20.8555C61.0729 20.556 62.056 20.4062 63.2148 20.4062C65.5586 20.4062 67.6029 21.194 69.3477 22.7695C71.0924 24.3451 71.9648 26.6367 71.9648 29.6445C71.9648 32.2617 71.125 34.599 69.4453 36.6562C67.7656 38.7135 65.2526 39.7422 61.9062 39.7422C59.2109 39.7422 56.9974 39.0195 55.2656 37.5742C53.5339 36.1289 52.5703 34.0781 52.375 31.4219H57.9219Z" fill="white"/>
</svg>
