<svg width="97" height="50" viewBox="0 0 97 50" fill="none" xmlns="http://www.w3.org/2000/svg">
<path d="M44 25C44 38.8071 34.1503 50 22 50C9.84974 50 0 38.8071 0 25C0 11.1929 9.84974 0 22 0C34.1503 0 44 11.1929 44 25Z" fill="#00738A"/>
<path d="M53 25C53 11.1929 62.8497 0 75 0C87.1503 0 97 11.1929 97 25C97 38.8071 87.1503 50 75 50C62.8497 50 53 38.8071 53 25Z" fill="#00738A"/>
<path d="M22 0H74V50H22V0Z" fill="#00738A"/>
<path d="M20.3438 15.2109V22.9453H27.1602C28.5143 22.9453 29.5299 22.7891 30.207 22.4766C31.4049 21.9297 32.0039 20.849 32.0039 19.2344C32.0039 17.4896 31.4245 16.3177 30.2656 15.7188C29.6146 15.3802 28.638 15.2109 27.3359 15.2109H20.3438ZM28.5859 10.2109C30.6042 10.25 32.1536 10.4974 33.2344 10.9531C34.3281 11.4089 35.2526 12.0794 36.0078 12.9648C36.6328 13.694 37.1276 14.5013 37.4922 15.3867C37.8568 16.2721 38.0391 17.2812 38.0391 18.4141C38.0391 19.7812 37.694 21.1289 37.0039 22.457C36.3138 23.7721 35.1745 24.7031 33.5859 25.25C34.9141 25.7839 35.8516 26.5456 36.3984 27.5352C36.9583 28.5117 37.2383 30.0091 37.2383 32.0273V33.9609C37.2383 35.276 37.2904 36.168 37.3945 36.6367C37.5508 37.3789 37.9154 37.9258 38.4883 38.2773V39H31.8672C31.6849 38.362 31.5547 37.8477 31.4766 37.457C31.3203 36.6497 31.2357 35.8229 31.2227 34.9766L31.1836 32.3008C31.1576 30.4648 30.819 29.2409 30.168 28.6289C29.5299 28.0169 28.3255 27.7109 26.5547 27.7109H20.3438V39H14.4648V10.2109H28.5859ZM46.7891 31.4219C47.0104 32.6328 47.4336 33.5703 48.0586 34.2344C48.6836 34.8854 49.5951 35.2109 50.793 35.2109C52.1732 35.2109 53.2214 34.7292 53.9375 33.7656C54.6667 32.7891 55.0312 31.5651 55.0312 30.0938C55.0312 28.6484 54.6927 27.431 54.0156 26.4414C53.3385 25.4388 52.2839 24.9375 50.8516 24.9375C50.1745 24.9375 49.5885 25.0221 49.0938 25.1914C48.2214 25.5039 47.5638 26.0833 47.1211 26.9297L42.1211 26.6953L44.1133 11.0508H59.7188V15.7773H48.1367L47.1211 21.9688C47.9805 21.4089 48.651 21.0378 49.1328 20.8555C49.9401 20.556 50.9232 20.4062 52.082 20.4062C54.4258 20.4062 56.4701 21.194 58.2148 22.7695C59.9596 24.3451 60.832 26.6367 60.832 29.6445C60.832 32.2617 59.9922 34.599 58.3125 36.6562C56.6328 38.7135 54.1198 39.7422 50.7734 39.7422C48.0781 39.7422 45.8646 39.0195 44.1328 37.5742C42.401 36.1289 41.4375 34.0781 41.2422 31.4219H46.7891ZM69.3867 25.1133C69.3867 28.3685 69.6536 30.862 70.1875 32.5938C70.7214 34.3125 71.8151 35.1719 73.4688 35.1719C75.1224 35.1719 76.2031 34.3125 76.7109 32.5938C77.2318 30.862 77.4922 28.3685 77.4922 25.1133C77.4922 21.7018 77.2318 19.1758 76.7109 17.5352C76.2031 15.8945 75.1224 15.0742 73.4688 15.0742C71.8151 15.0742 70.7214 15.8945 70.1875 17.5352C69.6536 19.1758 69.3867 21.7018 69.3867 25.1133ZM73.4688 10.4844C77.0755 10.4844 79.6016 11.7539 81.0469 14.293C82.5052 16.832 83.2344 20.4388 83.2344 25.1133C83.2344 29.7878 82.5052 33.388 81.0469 35.9141C79.6016 38.4401 77.0755 39.7031 73.4688 39.7031C69.862 39.7031 67.3294 38.4401 65.8711 35.9141C64.4258 33.388 63.7031 29.7878 63.7031 25.1133C63.7031 20.4388 64.4258 16.832 65.8711 14.293C67.3294 11.7539 69.862 10.4844 73.4688 10.4844Z" fill="white"/>
</svg>
