<svg width="97" height="50" viewBox="0 0 97 50" fill="none" xmlns="http://www.w3.org/2000/svg">
<path d="M44 25C44 38.8071 34.1503 50 22 50C9.84974 50 0 38.8071 0 25C0 11.1929 9.84974 0 22 0C34.1503 0 44 11.1929 44 25Z" fill="#B3B3B3"/>
<path d="M53 25C53 11.1929 62.8497 0 75 0C87.1503 0 97 11.1929 97 25C97 38.8071 87.1503 50 75 50C62.8497 50 53 38.8071 53 25Z" fill="#B3B3B3"/>
<path d="M22 0H74V50H22V0Z" fill="#B3B3B3"/>
<path d="M31.4766 15.2109V22.9453H38.293C39.6471 22.9453 40.6628 22.7891 41.3398 22.4766C42.5378 21.9297 43.1367 20.849 43.1367 19.2344C43.1367 17.4896 42.5573 16.3177 41.3984 15.7188C40.7474 15.3802 39.7708 15.2109 38.4688 15.2109H31.4766ZM39.7188 10.2109C41.737 10.25 43.2865 10.4974 44.3672 10.9531C45.4609 11.4089 46.3854 12.0794 47.1406 12.9648C47.7656 13.694 48.2604 14.5013 48.625 15.3867C48.9896 16.2721 49.1719 17.2812 49.1719 18.4141C49.1719 19.7812 48.8268 21.1289 48.1367 22.457C47.4466 23.7721 46.3073 24.7031 44.7188 25.25C46.0469 25.7839 46.9844 26.5456 47.5312 27.5352C48.0911 28.5117 48.3711 30.0091 48.3711 32.0273V33.9609C48.3711 35.276 48.4232 36.168 48.5273 36.6367C48.6836 37.3789 49.0482 37.9258 49.6211 38.2773V39H43C42.8177 38.362 42.6875 37.8477 42.6094 37.457C42.4531 36.6497 42.3685 35.8229 42.3555 34.9766L42.3164 32.3008C42.2904 30.4648 41.9518 29.2409 41.3008 28.6289C40.6628 28.0169 39.4583 27.7109 37.6875 27.7109H31.4766V39H25.5977V10.2109H39.7188ZM58.1562 30.0352C58.1562 31.5586 58.5664 32.8021 59.3867 33.7656C60.207 34.7292 61.2487 35.2109 62.5117 35.2109C63.7487 35.2109 64.7188 34.7487 65.4219 33.8242C66.138 32.8867 66.4961 31.6758 66.4961 30.1914C66.4961 28.5378 66.0924 27.2747 65.2852 26.4023C64.4779 25.5169 63.4883 25.0742 62.3164 25.0742C61.3659 25.0742 60.526 25.3607 59.7969 25.9336C58.7031 26.7799 58.1562 28.1471 58.1562 30.0352ZM65.9883 17.8086C65.9883 17.3529 65.8125 16.8516 65.4609 16.3047C64.862 15.4193 63.957 14.9766 62.7461 14.9766C60.9362 14.9766 59.6471 15.9922 58.8789 18.0234C58.4622 19.1432 58.1758 20.7969 58.0195 22.9844C58.7096 22.1641 59.5104 21.5651 60.4219 21.1875C61.3333 20.8099 62.375 20.6211 63.5469 20.6211C66.0599 20.6211 68.1172 21.474 69.7188 23.1797C71.3333 24.8854 72.1406 27.0664 72.1406 29.7227C72.1406 32.3659 71.3529 34.6966 69.7773 36.7148C68.2018 38.7331 65.7539 39.7422 62.4336 39.7422C58.8659 39.7422 56.2357 38.2513 54.543 35.2695C53.2279 32.9388 52.5703 29.931 52.5703 26.2461C52.5703 24.0846 52.6615 22.3268 52.8438 20.9727C53.1693 18.5638 53.8008 16.5586 54.7383 14.957C55.5456 13.5898 56.6003 12.4896 57.9023 11.6562C59.2174 10.8229 60.7865 10.4062 62.6094 10.4062C65.2396 10.4062 67.3359 11.0833 68.8984 12.4375C70.4609 13.7786 71.3398 15.569 71.5352 17.8086H65.9883Z" fill="white"/>
</svg>
