<svg width="97" height="50" viewBox="0 0 97 50" fill="none" xmlns="http://www.w3.org/2000/svg">
<path d="M44 25C44 38.8071 34.1503 50 22 50C9.84974 50 0 38.8071 0 25C0 11.1929 9.84974 0 22 0C34.1503 0 44 11.1929 44 25Z" fill="#5B5B5B"/>
<path d="M53 25C53 11.1929 62.8497 0 75 0C87.1503 0 97 11.1929 97 25C97 38.8071 87.1503 50 75 50C62.8497 50 53 38.8071 53 25Z" fill="#5B5B5B"/>
<path d="M22 0H74V50H22V0Z" fill="#5B5B5B"/>
<path d="M20.3438 15.2109V22.9453H27.1602C28.5143 22.9453 29.5299 22.7891 30.207 22.4766C31.4049 21.9297 32.0039 20.849 32.0039 19.2344C32.0039 17.4896 31.4245 16.3177 30.2656 15.7188C29.6146 15.3802 28.638 15.2109 27.3359 15.2109H20.3438ZM28.5859 10.2109C30.6042 10.25 32.1536 10.4974 33.2344 10.9531C34.3281 11.4089 35.2526 12.0794 36.0078 12.9648C36.6328 13.694 37.1276 14.5013 37.4922 15.3867C37.8568 16.2721 38.0391 17.2812 38.0391 18.4141C38.0391 19.7812 37.694 21.1289 37.0039 22.457C36.3138 23.7721 35.1745 24.7031 33.5859 25.25C34.9141 25.7839 35.8516 26.5456 36.3984 27.5352C36.9583 28.5117 37.2383 30.0091 37.2383 32.0273V33.9609C37.2383 35.276 37.2904 36.168 37.3945 36.6367C37.5508 37.3789 37.9154 37.9258 38.4883 38.2773V39H31.8672C31.6849 38.362 31.5547 37.8477 31.4766 37.457C31.3203 36.6497 31.2357 35.8229 31.2227 34.9766L31.1836 32.3008C31.1576 30.4648 30.819 29.2409 30.168 28.6289C29.5299 28.0169 28.3255 27.7109 26.5547 27.7109H20.3438V39H14.4648V10.2109H28.5859ZM47.0234 30.0352C47.0234 31.5586 47.4336 32.8021 48.2539 33.7656C49.0742 34.7292 50.1159 35.2109 51.3789 35.2109C52.6159 35.2109 53.5859 34.7487 54.2891 33.8242C55.0052 32.8867 55.3633 31.6758 55.3633 30.1914C55.3633 28.5378 54.9596 27.2747 54.1523 26.4023C53.3451 25.5169 52.3555 25.0742 51.1836 25.0742C50.2331 25.0742 49.3932 25.3607 48.6641 25.9336C47.5703 26.7799 47.0234 28.1471 47.0234 30.0352ZM54.8555 17.8086C54.8555 17.3529 54.6797 16.8516 54.3281 16.3047C53.7292 15.4193 52.8242 14.9766 51.6133 14.9766C49.8034 14.9766 48.5143 15.9922 47.7461 18.0234C47.3294 19.1432 47.043 20.7969 46.8867 22.9844C47.5768 22.1641 48.3776 21.5651 49.2891 21.1875C50.2005 20.8099 51.2422 20.6211 52.4141 20.6211C54.9271 20.6211 56.9844 21.474 58.5859 23.1797C60.2005 24.8854 61.0078 27.0664 61.0078 29.7227C61.0078 32.3659 60.2201 34.6966 58.6445 36.7148C57.069 38.7331 54.6211 39.7422 51.3008 39.7422C47.7331 39.7422 45.1029 38.2513 43.4102 35.2695C42.0951 32.9388 41.4375 29.931 41.4375 26.2461C41.4375 24.0846 41.5286 22.3268 41.7109 20.9727C42.0365 18.5638 42.668 16.5586 43.6055 14.957C44.4128 13.5898 45.4674 12.4896 46.7695 11.6562C48.0846 10.8229 49.6536 10.4062 51.4766 10.4062C54.1068 10.4062 56.2031 11.0833 57.7656 12.4375C59.3281 13.7786 60.207 15.569 60.4023 17.8086H54.8555ZM69.3867 25.1133C69.3867 28.3685 69.6536 30.862 70.1875 32.5938C70.7214 34.3125 71.8151 35.1719 73.4688 35.1719C75.1224 35.1719 76.2031 34.3125 76.7109 32.5938C77.2318 30.862 77.4922 28.3685 77.4922 25.1133C77.4922 21.7018 77.2318 19.1758 76.7109 17.5352C76.2031 15.8945 75.1224 15.0742 73.4688 15.0742C71.8151 15.0742 70.7214 15.8945 70.1875 17.5352C69.6536 19.1758 69.3867 21.7018 69.3867 25.1133ZM73.4688 10.4844C77.0755 10.4844 79.6016 11.7539 81.0469 14.293C82.5052 16.832 83.2344 20.4388 83.2344 25.1133C83.2344 29.7878 82.5052 33.388 81.0469 35.9141C79.6016 38.4401 77.0755 39.7031 73.4688 39.7031C69.862 39.7031 67.3294 38.4401 65.8711 35.9141C64.4258 33.388 63.7031 29.7878 63.7031 25.1133C63.7031 20.4388 64.4258 16.832 65.8711 14.293C67.3294 11.7539 69.862 10.4844 73.4688 10.4844Z" fill="white"/>
</svg>
