<svg width="97" height="50" viewBox="0 0 97 50" fill="none" xmlns="http://www.w3.org/2000/svg">
<path d="M44 25C44 38.8071 34.1503 50 22 50C9.84974 50 0 38.8071 0 25C0 11.1929 9.84974 0 22 0C34.1503 0 44 11.1929 44 25Z" fill="#448E99"/>
<path d="M53 25C53 11.1929 62.8497 0 75 0C87.1503 0 97 11.1929 97 25C97 38.8071 87.1503 50 75 50C62.8497 50 53 38.8071 53 25Z" fill="#448E99"/>
<path d="M22 0H74V50H22V0Z" fill="#448E99"/>
<path d="M31.4297 30.1133C31.612 31.4284 31.9701 32.4115 32.5039 33.0625C33.4805 34.2474 35.1536 34.8398 37.5234 34.8398C38.9427 34.8398 40.0951 34.6836 40.9805 34.3711C42.6602 33.7721 43.5 32.6589 43.5 31.0312C43.5 30.0807 43.0833 29.3451 42.25 28.8242C41.4167 28.3164 40.1081 27.8672 38.3242 27.4766L35.2773 26.793C32.2826 26.1159 30.2122 25.3802 29.0664 24.5859C27.1263 23.2578 26.1562 21.181 26.1562 18.3555C26.1562 15.7773 27.0938 13.6354 28.9688 11.9297C30.8438 10.224 33.5977 9.37109 37.2305 9.37109C40.2643 9.37109 42.849 10.1784 44.9844 11.793C47.1328 13.3945 48.2591 15.7253 48.3633 18.7852H42.582C42.4779 17.0534 41.7227 15.8229 40.3164 15.0938C39.3789 14.612 38.2135 14.3711 36.8203 14.3711C35.2708 14.3711 34.0339 14.6836 33.1094 15.3086C32.1849 15.9336 31.7227 16.806 31.7227 17.9258C31.7227 18.9544 32.1784 19.7227 33.0898 20.2305C33.6758 20.569 34.9258 20.9661 36.8398 21.4219L41.8008 22.6133C43.9753 23.1341 45.6159 23.8307 46.7227 24.7031C48.4414 26.0573 49.3008 28.0169 49.3008 30.582C49.3008 33.2122 48.2917 35.3997 46.2734 37.1445C44.2682 38.8763 41.4297 39.7422 37.7578 39.7422C34.0078 39.7422 31.0586 38.8893 28.9102 37.1836C26.7617 35.4648 25.6875 33.1081 25.6875 30.1133H31.4297ZM57.2305 30.3086C57.2305 31.4414 57.4128 32.3789 57.7773 33.1211C58.4544 34.4883 59.6849 35.1719 61.4688 35.1719C62.5625 35.1719 63.513 34.8008 64.3203 34.0586C65.1406 33.3034 65.5508 32.2227 65.5508 30.8164C65.5508 28.9544 64.7956 27.7109 63.2852 27.0859C62.4258 26.7344 61.0716 26.5586 59.2227 26.5586V22.5742C61.0326 22.5482 62.2956 22.3724 63.0117 22.0469C64.2487 21.5 64.8672 20.3932 64.8672 18.7266C64.8672 17.6458 64.5482 16.7669 63.9102 16.0898C63.2852 15.4128 62.3997 15.0742 61.2539 15.0742C59.9388 15.0742 58.9688 15.4909 58.3438 16.3242C57.7318 17.1576 57.4388 18.2708 57.4648 19.6641H52.2695C52.3216 18.2578 52.5625 16.9232 52.9922 15.6602C53.4479 14.5534 54.1641 13.5312 55.1406 12.5938C55.8698 11.9297 56.7357 11.4219 57.7383 11.0703C58.7409 10.7188 59.9714 10.543 61.4297 10.543C64.138 10.543 66.319 11.2461 67.9727 12.6523C69.6393 14.0456 70.4727 15.9206 70.4727 18.2773C70.4727 19.944 69.9779 21.3503 68.9883 22.4961C68.3633 23.2122 67.7122 23.7005 67.0352 23.9609C67.543 23.9609 68.2721 24.3971 69.2227 25.2695C70.6419 26.5846 71.3516 28.3815 71.3516 30.6602C71.3516 33.056 70.5182 35.1654 68.8516 36.9883C67.1979 38.7982 64.7435 39.7031 61.4883 39.7031C57.4779 39.7031 54.6914 38.3945 53.1289 35.7773C52.3086 34.3841 51.8529 32.5612 51.7617 30.3086H57.2305Z" fill="white"/>
</svg>
