<svg width="97" height="50" viewBox="0 0 97 50" fill="none" xmlns="http://www.w3.org/2000/svg">
<path d="M44 25C44 38.8071 34.1503 50 22 50C9.84974 50 0 38.8071 0 25C0 11.1929 9.84974 0 22 0C34.1503 0 44 11.1929 44 25Z" fill="#EB4B6F"/>
<path d="M53 25C53 11.1929 62.8497 0 75 0C87.1503 0 97 11.1929 97 25C97 38.8071 87.1503 50 75 50C62.8497 50 53 38.8071 53 25Z" fill="#EB4B6F"/>
<path d="M22 0H74V50H22V0Z" fill="#EB4B6F"/>
<path d="M31.4297 30.1133C31.612 31.4284 31.9701 32.4115 32.5039 33.0625C33.4805 34.2474 35.1536 34.8398 37.5234 34.8398C38.9427 34.8398 40.0951 34.6836 40.9805 34.3711C42.6602 33.7721 43.5 32.6589 43.5 31.0312C43.5 30.0807 43.0833 29.3451 42.25 28.8242C41.4167 28.3164 40.1081 27.8672 38.3242 27.4766L35.2773 26.793C32.2826 26.1159 30.2122 25.3802 29.0664 24.5859C27.1263 23.2578 26.1562 21.181 26.1562 18.3555C26.1562 15.7773 27.0938 13.6354 28.9688 11.9297C30.8438 10.224 33.5977 9.37109 37.2305 9.37109C40.2643 9.37109 42.849 10.1784 44.9844 11.793C47.1328 13.3945 48.2591 15.7253 48.3633 18.7852H42.582C42.4779 17.0534 41.7227 15.8229 40.3164 15.0938C39.3789 14.612 38.2135 14.3711 36.8203 14.3711C35.2708 14.3711 34.0339 14.6836 33.1094 15.3086C32.1849 15.9336 31.7227 16.806 31.7227 17.9258C31.7227 18.9544 32.1784 19.7227 33.0898 20.2305C33.6758 20.569 34.9258 20.9661 36.8398 21.4219L41.8008 22.6133C43.9753 23.1341 45.6159 23.8307 46.7227 24.7031C48.4414 26.0573 49.3008 28.0169 49.3008 30.582C49.3008 33.2122 48.2917 35.3997 46.2734 37.1445C44.2682 38.8763 41.4297 39.7422 37.7578 39.7422C34.0078 39.7422 31.0586 38.8893 28.9102 37.1836C26.7617 35.4648 25.6875 33.1081 25.6875 30.1133H31.4297ZM51.8984 20.6406C51.8984 17.6068 52.7708 15.1523 54.5156 13.2773C56.2734 11.3893 58.5521 10.4453 61.3516 10.4453C65.6615 10.4453 68.6172 12.3529 70.2188 16.168C71.1302 18.3294 71.5859 21.1745 71.5859 24.7031C71.5859 28.1276 71.1497 30.9857 70.2773 33.2773C68.6107 37.6393 65.5508 39.8203 61.0977 39.8203C58.9753 39.8203 57.0677 39.1953 55.375 37.9453C53.6823 36.6823 52.7122 34.8464 52.4648 32.4375H58.0117C58.1419 33.2708 58.4935 33.9479 59.0664 34.4688C59.6393 34.9896 60.401 35.25 61.3516 35.25C63.1875 35.25 64.4766 34.2344 65.2188 32.2031C65.6224 31.0833 65.8763 29.4492 65.9805 27.3008C65.4727 27.9388 64.9323 28.4271 64.3594 28.7656C63.3177 29.3906 62.0352 29.7031 60.5117 29.7031C58.2591 29.7031 56.2604 28.9284 54.5156 27.3789C52.7708 25.8164 51.8984 23.5703 51.8984 20.6406ZM61.7227 25.1719C62.4909 25.1719 63.2135 24.9505 63.8906 24.5078C65.1536 23.7005 65.7852 22.3008 65.7852 20.3086C65.7852 18.707 65.4076 17.4375 64.6523 16.5C63.9102 15.5625 62.888 15.0938 61.5859 15.0938C60.6354 15.0938 59.8216 15.3607 59.1445 15.8945C58.0768 16.7279 57.543 18.1406 57.543 20.1328C57.543 21.8125 57.8815 23.0755 58.5586 23.9219C59.2487 24.7552 60.3034 25.1719 61.7227 25.1719Z" fill="white"/>
</svg>
